{"title":"Oculus 2013 BDRip 1080p x264 Dual Audio 5.1Ch [Hindi-Eng] YsB Te","uid":10793193,"size":3056723557,"categoryP":"video","categoryS":"hd___movies","magnet":"?xt=urn:btih:2500187c37e71b69d64c38bea1e475630e0d7041&amp;dn=Oculus+2013+BDRip+1080p+x264+Dual+Audio+5.1Ch+%5BHindi-Eng%5D+YsB+Te&amp;tr=udp%3A%2F%2Ftracker.openbittorrent.com%3A80&amp;tr=udp%3A%2F%2Fopen.demonii.com%3A1337&amp;tr=udp%3A%2F%2Ftracker.coppersurfer.tk%3A6969&amp;tr=udp%3A%2F%2Fexodus.desync.com%3A6969","seeders":1,"leechers":0,"uploader":"Dj_YsB","files":10,"time":1408274536,"description":"Oculus 2013 BDRip 1080p x264 Dual Audio 5.1Ch [Hindi-Eng] YsB TeaM FL\n &lt;a href=&quot;\nhttp://i.imgur.com/KWhnGvo.jpg&quot; rel=&quot;nofollow&quot; target=&quot;_NEW&quot;&gt;\nhttp://i.imgur.com/KWhnGvo.jpg&lt;/a&gt;\n\nInfo:\nGeneral\nComplete name                            : Oculus 2013 BDRip 1080p x264 Dual Audio 5.1Ch [Hindi-Eng] YsB TeaM FL.mkv\nFormat                                   : Matroska\nFormat version                           : Version 4 / Version 2\nFile size                                : 2.80 GiB\nDuration                                 : 1h 44mn\nOverall bit rate                         : 3 848 Kbps\nMovie name                               : Oculus 2013 BDRip 1080p x264 Dual Audio 5.1Ch [Hindi-Eng] YsB TeaM FL\nVideo\nID                                       : 1\nFormat                                   : AVC\nDuration                                 : 1h 44mn\nBit rate                                 : 3 072 Kbps\nWidth                                    : 1 920 pixels\nHeight                                   : 800 pixels\nFrame rate mode                          : Constant\nFrame rate                               : 23.976 fps\nStream size                              : 2.18 GiB (78%)\nTitle                                    : YsB TeaM FL\n\n\nAudio #1\nID                                       : 2\nFormat                                   : AC-3\nDuration                                 : 1h 44mn\nBit rate                                 : 384 Kbps\nChannel(s)                               : 6 channels\nChannel positions                        : Front: L C R, Side: L R, LFE\nSampling rate                            : 48.0 KHz\nStream size                              : 286 MiB (10%)\nTitle                                    : YsB TeaM FL\nLanguage                                 : Hindi\n\nAudio #2\nID                                       : 3\nFormat                                   : AC-3\nDuration                                 : 1h 44mn\nBit rate                                 : 384 Kbps\nChannel(s)                               : 6 channels\nChannel positions                        : Front: L C R, Side: L R, LFE\nSampling rate                            : 48.0 KHz\nStream size                              : 286 MiB (10%)\nTitle                                    : YsB TeaM FL\nLanguage                                 : English\n\nText #1\nID                                       : 4\nFormat                                   : UTF-8\nCodec ID                                 : S_TEXT/UTF8\nCodec ID/Info                            : UTF-8 Plain Text\nTitle                                    : YsB TeaM FL\nLanguage                                 : English\nDefault                                  : No\nForced                                   : No\n\nText #2\nID                                       : 5\nFormat                                   : PGS\nMuxing mode                              : zlib\nCodec ID                                 : S_HDMV/PGS\nCodec ID/Info                            : The same subtitle format used on BDs/HD-DVDs\nTitle                                    : YsB TeaM FL\nLanguage                                 : English\nDefault                                  : No\nForced                                   : No\n\nMenu\n00:00:00.000                             : en:00:00:00.000\n00:03:10.690                             : en:00:03:10.690\n00:07:26.571                             : en:00:07:26.571\n00:12:32.752                             : en:00:12:32.752\n00:14:41.881                             : en:00:14:41.881\n00:19:54.318                             : en:00:19:54.318\n00:24:35.057                             : en:00:24:35.057\n00:30:56.396                             : en:00:30:56.396\n00:34:01.414                             : en:00:34:01.414\n00:39:20.149                             : en:00:39:20.149\n00:42:50.109                             : en:00:42:50.109\n00:46:09.934                             : en:00:46:09.934\n00:51:21.412                             : en:00:51:21.412\n00:54:53.582                             : en:00:54:53.582\n00:57:14.389                             : en:00:57:14.389\n01:01:54.252                             : en:01:01:54.252\n01:08:05.540                             : en:01:08:05.540\n01:11:46.594                             : en:01:11:46.594\n01:14:19.497                             : en:01:14:19.497\n01:19:14.750                             : en:01:19:14.750\n01:23:16.700                             : en:01:23:16.700\n01:28:45.237                             : en:01:28:45.237\n01:34:24.617                             : en:01:34:24.617\n01:37:17.999                             : en:01:37:17.999\n\nScreenShot: &lt;a href=&quot;\nhttp://i.imgur.com/jAiExuP.jpg&quot; rel=&quot;nofollow&quot; target=&quot;_NEW&quot;&gt;\nhttp://i.imgur.com/jAiExuP.jpg&lt;/a&gt; &lt;a href=&quot;\nhttp://i.imgur.com/Ln5gspm.jpg&quot; rel=&quot;nofollow&quot; target=&quot;_NEW&quot;&gt;\nhttp://i.imgur.com/Ln5gspm.jpg&lt;/a&gt; &lt;a href=&quot;\nhttp://i.imgur.com/bfdxZ2t.jpg&quot; rel=&quot;nofollow&quot; target=&quot;_NEW&quot;&gt;\nhttp://i.imgur.com/bfdxZ2t.jpg&lt;/a&gt;\n\nThanks\nGPsoft.\nTeaM FL - Dj YsB, Swaraj, Hemkumar, Sajan...","torrent":{"xt":"urn:btih:2500187c37e71b69d64c38bea1e475630e0d7041","amp;dn":"Oculus+2013+BDRip+1080p+x264+Dual+Audio+5.1Ch+%5BHindi-Eng%5D+YsB+Te","amp;tr":["udp%3A%2F%2Ftracker.openbittorrent.com%3A80","udp%3A%2F%2Fopen.demonii.com%3A1337","udp%3A%2F%2Ftracker.coppersurfer.tk%3A6969","udp%3A%2F%2Fexodus.desync.com%3A6969"],"infoHash":"2500187c37e71b69d64c38bea1e475630e0d7041","infoHashBuffer":{"type":"Buffer","data":[37,0,24,124,55,231,27,105,214,76,56,190,161,228,117,99,14,13,112,65]},"announce":[],"urlList":[]}}